<?xml version="1.0" standalone="no"?>
<!DOCTYPE svg PUBLIC "-//W3C//DTD SVG 20010904//EN"
 "http://www.w3.org/TR/2001/REC-SVG-20010904/DTD/svg10.dtd">
<svg version="1.0" xmlns="http://www.w3.org/2000/svg"
 width="1725.000000pt" height="417.000000pt" viewBox="0 0 1725.000000 417.000000"
 preserveAspectRatio="xMidYMid meet">

<g transform="translate(0.000000,417.000000) scale(0.100000,-0.100000)"
fill="#000000" stroke="none">
<path d="M2133 3552 l-153 -3 0 -1443 c0 -1307 1 -1444 16 -1450 9 -3 200 -6
424 -6 394 0 410 1 420 19 15 29 13 364 -2 379 -9 9 -70 12 -214 12 -117 0
-205 4 -209 9 -3 6 -6 365 -6 798 0 688 2 788 15 791 8 2 20 -7 27 -20 12 -23
41 -66 494 -723 137 -198 296 -429 354 -512 58 -84 110 -153 115 -153 19 0 31
14 90 100 31 47 107 157 167 245 61 88 139 203 175 255 82 119 216 315 275
400 25 36 99 144 164 240 65 96 123 175 129 175 8 0 12 -281 14 -994 1 -714 5
-998 13 -1008 17 -19 382 -19 398 1 8 10 11 389 11 1437 0 1182 -2 1426 -14
1437 -10 10 -52 14 -171 14 -141 0 -159 -1 -175 -18 -16 -18 -69 -94 -355
-516 -132 -195 -285 -420 -447 -658 -58 -85 -139 -204 -180 -264 -41 -61 -80
-112 -86 -114 -14 -4 -29 16 -387 542 -77 113 -203 298 -280 411 -77 112 -200
292 -273 399 -74 107 -139 199 -145 204 -20 16 -45 17 -204 14z"/>
<path d="M7115 3545 c-33 -7 -74 -14 -92 -14 -18 -1 -42 -5 -55 -10 -13 -5
-48 -17 -78 -26 -222 -66 -423 -188 -600 -365 -214 -214 -347 -463 -411 -770
-19 -87 -19 -432 -1 -520 99 -476 376 -842 799 -1053 209 -105 396 -147 648
-147 161 0 243 9 370 42 400 102 749 382 938 753 58 114 98 225 138 380 18 71
24 405 9 491 -6 38 -15 89 -20 114 -24 142 -143 398 -254 546 -224 300 -537
496 -921 574 -92 19 -397 22 -470 5z m429 -421 c121 -27 256 -86 369 -161 86
-57 220 -189 277 -272 50 -75 125 -229 146 -303 47 -161 50 -415 7 -553 -68
-216 -157 -362 -305 -500 -110 -102 -269 -198 -388 -233 -137 -40 -149 -42
-325 -42 -191 0 -214 4 -370 62 -285 107 -525 351 -618 628 -52 154 -52 158
-51 350 1 168 3 193 27 275 84 288 287 529 564 669 85 42 123 55 263 86 67 15
328 11 404 -6z"/>
<path d="M9826 3545 l-21 -11 -3 -1428 c-1 -1048 1 -1432 9 -1442 23 -28 812
-14 999 16 338 56 584 161 802 344 165 138 312 370 372 586 10 36 22 75 27 88
5 13 9 37 9 55 0 18 7 57 15 87 11 40 15 110 15 255 0 193 -3 225 -41 410 -34
161 -118 348 -216 480 -73 97 -205 225 -293 283 -131 87 -358 185 -490 213
-260 54 -300 58 -655 64 -154 3 -331 6 -394 8 -64 1 -124 -3 -135 -8z m834
-416 c36 -5 90 -14 120 -19 208 -33 431 -137 566 -263 198 -185 273 -378 282
-717 4 -184 -9 -281 -59 -428 -87 -258 -280 -447 -560 -547 -100 -36 -171 -55
-249 -66 -36 -5 -83 -13 -105 -19 -43 -10 -393 -14 -419 -4 -14 6 -16 106 -16
1033 0 565 3 1031 7 1034 10 11 361 8 433 -4z"/>
<path d="M13792 3549 c-10 -4 -33 -47 -55 -105 -47 -123 -66 -170 -83 -211 -8
-17 -14 -36 -14 -42 0 -6 -4 -19 -10 -29 -5 -9 -35 -84 -65 -167 -30 -82 -59
-159 -64 -170 -19 -43 -43 -106 -97 -250 -31 -82 -65 -172 -76 -200 -10 -27
-25 -66 -32 -85 -24 -63 -108 -284 -126 -330 -10 -25 -43 -112 -74 -195 -31
-82 -63 -166 -71 -185 -23 -57 -78 -200 -174 -455 -50 -132 -95 -249 -100
-260 -21 -47 -61 -162 -61 -176 0 -35 20 -39 217 -39 185 0 193 1 213 22 11
12 20 28 20 35 0 7 7 27 15 45 8 18 30 76 50 128 58 152 62 163 78 205 29 72
107 278 144 375 19 52 39 104 44 115 5 11 18 45 29 75 11 30 25 64 30 75 5 11
25 65 45 120 33 88 99 262 140 365 7 19 39 103 71 185 31 83 65 170 74 195 10
25 36 94 58 153 22 60 43 111 45 114 12 11 26 -10 57 -89 17 -46 38 -96 45
-113 7 -16 34 -88 60 -160 26 -71 53 -143 60 -160 22 -53 58 -146 120 -312 14
-38 39 -102 55 -143 67 -176 122 -319 141 -370 26 -70 48 -127 64 -165 48
-116 96 -258 91 -270 -4 -13 -44 -15 -244 -15 -172 0 -241 -3 -250 -12 -8 -8
-12 -66 -12 -194 0 -151 3 -184 15 -194 12 -10 134 -14 534 -18 285 -3 530 -2
545 2 23 6 26 12 26 46 0 26 -5 40 -13 40 -7 0 -22 28 -34 63 -20 59 -114 311
-132 352 -10 22 -29 72 -60 155 -31 83 -110 290 -128 335 -8 22 -22 58 -30 80
-9 22 -19 49 -24 60 -5 11 -28 74 -53 140 -24 66 -50 134 -56 150 -7 17 -18
44 -25 60 -7 17 -34 89 -60 160 -26 72 -53 144 -60 160 -24 59 -97 247 -152
395 -44 117 -82 215 -98 255 -7 17 -31 80 -53 140 -22 61 -46 124 -52 140 -61
150 -73 175 -84 176 -94 4 -351 2 -364 -2z"/>
</g>
</svg>
